<svg width="255" height="201" viewBox="0 0 255 201" fill="none" xmlns="http://www.w3.org/2000/svg">
<g clip-path="url(#clip0_10_329)">
<path d="M221.305 200.464C219.934 200.463 218.585 200.123 217.379 199.473C216.172 198.823 215.145 197.884 214.39 196.74L194.31 166.86H121.105C116.68 166.857 112.436 165.1 109.306 161.972C106.175 158.845 104.412 154.603 104.405 150.178V125.178H112.755V150.178C112.762 152.389 113.645 154.508 115.21 156.07C116.775 157.632 118.896 158.511 121.107 158.513H198.765L221.336 192.099V158.51H238.005C239.1 158.511 240.185 158.297 241.198 157.878C242.21 157.46 243.13 156.846 243.905 156.072C244.68 155.298 245.295 154.379 245.715 153.367C246.134 152.355 246.35 151.27 246.35 150.175V70.925C246.351 69.8287 246.136 68.743 245.717 67.7299C245.299 66.7169 244.684 65.7964 243.909 65.0212C243.134 64.2461 242.213 63.6314 241.2 63.2125C240.187 62.7936 239.101 62.5787 238.005 62.58H196.275V54.23H238.005C240.199 54.228 242.371 54.6586 244.398 55.4972C246.425 56.3357 248.267 57.5658 249.818 59.1169C251.369 60.668 252.599 62.5098 253.438 64.5368C254.276 66.5639 254.707 68.7364 254.705 70.93V150.175C254.705 152.367 254.273 154.538 253.434 156.564C252.594 158.589 251.364 160.429 249.813 161.978C248.262 163.528 246.421 164.757 244.395 165.594C242.369 166.432 240.197 166.862 238.005 166.86H229.683V192.105C229.693 193.898 229.121 195.646 228.054 197.087C226.987 198.528 225.481 199.584 223.763 200.097C222.966 200.34 222.138 200.464 221.305 200.464V200.464Z" fill="#0033E2"/>
<path d="M16.705 0H179.565C183.991 0.0058121 188.235 1.76588 191.366 4.89461C194.497 8.02333 196.261 12.2656 196.27 16.692V112.635C196.262 117.059 194.5 121.3 191.37 124.427C188.241 127.555 183.999 129.314 179.575 129.32H82.275L44.022 175.576C42.9284 176.902 41.4521 177.857 39.795 178.312C38.1378 178.767 36.3806 178.7 34.7633 178.119C33.1461 177.538 31.7476 176.471 30.759 175.066C29.7704 173.66 29.2399 171.983 29.24 170.265V129.32H16.705C12.2799 129.316 8.03702 127.557 4.90586 124.43C1.7747 121.304 0.0105828 117.063 0 112.638V16.695C0.00846523 12.2681 1.77149 8.02504 4.90274 4.89567C8.03398 1.7663 12.2781 0.00581437 16.705 0V0ZM179.565 120.97C181.777 120.968 183.899 120.09 185.465 118.527C187.031 116.964 187.914 114.844 187.92 112.632V16.695C187.915 14.4817 187.032 12.3606 185.466 10.7965C183.9 9.23237 181.778 8.35264 179.565 8.35H16.705C14.4912 8.35291 12.3688 9.23314 10.8028 10.7979C9.23677 12.3626 8.35476 14.4842 8.35 16.698V112.635C8.35529 114.846 9.23651 116.964 10.8006 118.526C12.3648 120.089 14.4843 120.967 16.695 120.97H37.595V170.27L78.355 120.97H179.565Z" fill="#0033E2"/>
<path d="M112.75 112.635H104.405V70.925C104.406 66.4967 106.166 62.2503 109.298 59.1195C112.43 55.9888 116.677 54.23 121.105 54.23H179.565V62.58H121.105C120.008 62.5787 118.922 62.7935 117.908 63.2123C116.895 63.6311 115.974 64.2456 115.198 65.0206C114.422 65.7957 113.806 66.7161 113.386 67.7292C112.966 68.7423 112.75 69.8283 112.75 70.925V112.635Z" fill="#0033E2"/>
</g>
<defs>
<clipPath id="clip0_10_329">
<rect width="254.7" height="200.464" fill="white"/>
</clipPath>
</defs>
</svg>
